<svg id="visual" viewBox="0 0 900 600" width="900" height="600" xmlns="http://www.w3.org/2000/svg" xmlns:xlink="http://www.w3.org/1999/xlink" version="1.1"><rect x="0" y="0" width="900" height="600" fill="#001220"></rect><path d="M0 363L18.8 348.2C37.7 333.3 75.3 303.7 112.8 285C150.3 266.3 187.7 258.7 225.2 273C262.7 287.3 300.3 323.7 337.8 341C375.3 358.3 412.7 356.7 450.2 361C487.7 365.3 525.3 375.7 562.8 367.8C600.3 360 637.7 334 675.2 323.8C712.7 313.7 750.3 319.3 787.8 333.7C825.3 348 862.7 371 881.3 382.5L900 394L900 601L881.3 601C862.7 601 825.3 601 787.8 601C750.3 601 712.7 601 675.2 601C637.7 601 600.3 601 562.8 601C525.3 601 487.7 601 450.2 601C412.7 601 375.3 601 337.8 601C300.3 601 262.7 601 225.2 601C187.7 601 150.3 601 112.8 601C75.3 601 37.7 601 18.8 601L0 601Z" fill="#fa7268"></path><path d="M0 425L18.8 414.8C37.7 404.7 75.3 384.3 112.8 367.2C150.3 350 187.7 336 225.2 347C262.7 358 300.3 394 337.8 392.2C375.3 390.3 412.7 350.7 450.2 327.7C487.7 304.7 525.3 298.3 562.8 311.3C600.3 324.3 637.7 356.7 675.2 362.8C712.7 369 750.3 349 787.8 342C825.3 335 862.7 341 881.3 344L900 347L900 601L881.3 601C862.7 601 825.3 601 787.8 601C750.3 601 712.7 601 675.2 601C637.7 601 600.3 601 562.8 601C525.3 601 487.7 601 450.2 601C412.7 601 375.3 601 337.8 601C300.3 601 262.7 601 225.2 601C187.7 601 150.3 601 112.8 601C75.3 601 37.7 601 18.8 601L0 601Z" fill="#f16367"></path><path d="M0 445L18.8 432C37.7 419 75.3 393 112.8 389.8C150.3 386.7 187.7 406.3 225.2 409.3C262.7 412.3 300.3 398.7 337.8 398C375.3 397.3 412.7 409.7 450.2 424.5C487.7 439.3 525.3 456.7 562.8 455C600.3 453.3 637.7 432.7 675.2 414.2C712.7 395.7 750.3 379.3 787.8 376C825.3 372.7 862.7 382.3 881.3 387.2L900 392L900 601L881.3 601C862.7 601 825.3 601 787.8 601C750.3 601 712.7 601 675.2 601C637.7 601 600.3 601 562.8 601C525.3 601 487.7 601 450.2 601C412.7 601 375.3 601 337.8 601C300.3 601 262.7 601 225.2 601C187.7 601 150.3 601 112.8 601C75.3 601 37.7 601 18.8 601L0 601Z" fill="#e85467"></path><path d="M0 491L18.8 479.5C37.7 468 75.3 445 112.8 438.5C150.3 432 187.7 442 225.2 444.8C262.7 447.7 300.3 443.3 337.8 450.5C375.3 457.7 412.7 476.3 450.2 488C487.7 499.7 525.3 504.3 562.8 504.5C600.3 504.7 637.7 500.3 675.2 487.5C712.7 474.7 750.3 453.3 787.8 450.7C825.3 448 862.7 464 881.3 472L900 480L900 601L881.3 601C862.7 601 825.3 601 787.8 601C750.3 601 712.7 601 675.2 601C637.7 601 600.3 601 562.8 601C525.3 601 487.7 601 450.2 601C412.7 601 375.3 601 337.8 601C300.3 601 262.7 601 225.2 601C187.7 601 150.3 601 112.8 601C75.3 601 37.7 601 18.8 601L0 601Z" fill="#de4467"></path><path d="M0 541L18.8 527.5C37.7 514 75.3 487 112.8 475.5C150.3 464 187.7 468 225.2 473.2C262.7 478.3 300.3 484.7 337.8 496.5C375.3 508.3 412.7 525.7 450.2 531.8C487.7 538 525.3 533 562.8 521.3C600.3 509.7 637.7 491.3 675.2 480C712.7 468.7 750.3 464.3 787.8 473C825.3 481.7 862.7 503.3 881.3 514.2L900 525L900 601L881.3 601C862.7 601 825.3 601 787.8 601C750.3 601 712.7 601 675.2 601C637.7 601 600.3 601 562.8 601C525.3 601 487.7 601 450.2 601C412.7 601 375.3 601 337.8 601C300.3 601 262.7 601 225.2 601C187.7 601 150.3 601 112.8 601C75.3 601 37.7 601 18.8 601L0 601Z" fill="#d23467"></path><path d="M0 561L18.8 558C37.7 555 75.3 549 112.8 548.2C150.3 547.3 187.7 551.7 225.2 555.3C262.7 559 300.3 562 337.8 559.8C375.3 557.7 412.7 550.3 450.2 549.7C487.7 549 525.3 555 562.8 556.2C600.3 557.3 637.7 553.7 675.2 555.7C712.7 557.7 750.3 565.3 787.8 557.7C825.3 550 862.7 527 881.3 515.5L900 504L900 601L881.3 601C862.7 601 825.3 601 787.8 601C750.3 601 712.7 601 675.2 601C637.7 601 600.3 601 562.8 601C525.3 601 487.7 601 450.2 601C412.7 601 375.3 601 337.8 601C300.3 601 262.7 601 225.2 601C187.7 601 150.3 601 112.8 601C75.3 601 37.7 601 18.8 601L0 601Z" fill="#c62368"></path></svg>