<svg id="visual" viewBox="0 0 900 600" width="900" height="600" xmlns="http://www.w3.org/2000/svg" xmlns:xlink="http://www.w3.org/1999/xlink" version="1.1"><g stroke-width="1" stroke-linejoin="bevel"><path d="M479 277L478 210L409 291Z" fill="#9aa3a9" stroke="#9aa3a9"></path><path d="M478 210L380 180L409 291Z" fill="#aab9c1" stroke="#aab9c1"></path><path d="M273 283L384 386L409 291Z" fill="#b2c4cc" stroke="#b2c4cc"></path><path d="M409 291L504 409L479 277Z" fill="#a2aeb5" stroke="#a2aeb5"></path><path d="M380 180L281 220L409 291Z" fill="#b2c4cc" stroke="#b2c4cc"></path><path d="M478 210L404 83L380 180Z" fill="#aab9c1" stroke="#aab9c1"></path><path d="M380 180L299 92L281 220Z" fill="#969ea4" stroke="#969ea4"></path><path d="M281 220L273 283L409 291Z" fill="#aab9c1" stroke="#aab9c1"></path><path d="M620 179L525 102L478 210Z" fill="#8e9498" stroke="#8e9498"></path><path d="M478 210L525 102L404 83Z" fill="#9ea9af" stroke="#9ea9af"></path><path d="M504 409L604 273L479 277Z" fill="#9ea9af" stroke="#9ea9af"></path><path d="M479 277L604 273L478 210Z" fill="#8e9498" stroke="#8e9498"></path><path d="M384 386L504 409L409 291Z" fill="#aebec6" stroke="#aebec6"></path><path d="M604 273L620 179L478 210Z" fill="#969ea4" stroke="#969ea4"></path><path d="M404 83L299 92L380 180Z" fill="#aab9c1" stroke="#aab9c1"></path><path d="M273 283L287 396L384 386Z" fill="#b6c9d2" stroke="#b6c9d2"></path><path d="M384 386L392 484L504 409Z" fill="#b2c4cc" stroke="#b2c4cc"></path><path d="M620 179L610 106L525 102Z" fill="#9aa3a9" stroke="#9aa3a9"></path><path d="M517 0L384 0L404 83Z" fill="#9ea9af" stroke="#9ea9af"></path><path d="M522 518L591 421L504 409Z" fill="#9ea9af" stroke="#9ea9af"></path><path d="M504 409L591 421L604 273Z" fill="#aebec6" stroke="#aebec6"></path><path d="M604 273L681 275L620 179Z" fill="#aebec6" stroke="#aebec6"></path><path d="M281 220L208 315L273 283Z" fill="#9ea9af" stroke="#9ea9af"></path><path d="M273 283L208 315L287 396Z" fill="#8e9498" stroke="#8e9498"></path><path d="M183 175L208 315L281 220Z" fill="#aab9c1" stroke="#aab9c1"></path><path d="M287 396L392 484L384 386Z" fill="#969ea4" stroke="#969ea4"></path><path d="M706 386L681 275L604 273Z" fill="#aebec6" stroke="#aebec6"></path><path d="M620 179L726 111L610 106Z" fill="#aebec6" stroke="#aebec6"></path><path d="M404 83L384 0L299 92Z" fill="#92999e" stroke="#92999e"></path><path d="M517 0L404 83L525 102Z" fill="#9ea9af" stroke="#9ea9af"></path><path d="M588 0L517 0L525 102Z" fill="#b6c9d2" stroke="#b6c9d2"></path><path d="M187 93L183 175L299 92Z" fill="#b2c4cc" stroke="#b2c4cc"></path><path d="M299 92L183 175L281 220Z" fill="#b2c4cc" stroke="#b2c4cc"></path><path d="M681 275L706 226L620 179Z" fill="#aab9c1" stroke="#aab9c1"></path><path d="M384 0L303 0L299 92Z" fill="#a6b3bb" stroke="#a6b3bb"></path><path d="M176 381L287 488L287 396Z" fill="#a6b3bb" stroke="#a6b3bb"></path><path d="M287 396L287 488L392 484Z" fill="#a2aeb5" stroke="#a2aeb5"></path><path d="M407 600L522 518L392 484Z" fill="#a6b3bb" stroke="#a6b3bb"></path><path d="M392 484L522 518L504 409Z" fill="#9ea9af" stroke="#9ea9af"></path><path d="M691 0L588 0L610 106Z" fill="#9aa3a9" stroke="#9aa3a9"></path><path d="M610 106L588 0L525 102Z" fill="#b2c4cc" stroke="#b2c4cc"></path><path d="M208 0L187 93L299 92Z" fill="#b6c9d2" stroke="#b6c9d2"></path><path d="M110 308L176 381L208 315Z" fill="#92999e" stroke="#92999e"></path><path d="M208 315L176 381L287 396Z" fill="#aab9c1" stroke="#aab9c1"></path><path d="M522 518L626 479L591 421Z" fill="#a6b3bb" stroke="#a6b3bb"></path><path d="M591 421L706 386L604 273Z" fill="#a2aeb5" stroke="#a2aeb5"></path><path d="M681 275L789 303L706 226Z" fill="#b2c4cc" stroke="#b2c4cc"></path><path d="M626 479L706 386L591 421Z" fill="#b6c9d2" stroke="#b6c9d2"></path><path d="M706 226L726 111L620 179Z" fill="#9aa3a9" stroke="#9aa3a9"></path><path d="M814 214L726 111L706 226Z" fill="#b6c9d2" stroke="#b6c9d2"></path><path d="M103 226L110 308L208 315Z" fill="#b2c4cc" stroke="#b2c4cc"></path><path d="M103 226L208 315L183 175Z" fill="#8e9498" stroke="#8e9498"></path><path d="M86 88L103 226L183 175Z" fill="#b6c9d2" stroke="#b6c9d2"></path><path d="M303 0L208 0L299 92Z" fill="#9ea9af" stroke="#9ea9af"></path><path d="M187 93L86 88L183 175Z" fill="#a2aeb5" stroke="#a2aeb5"></path><path d="M726 111L691 0L610 106Z" fill="#a2aeb5" stroke="#a2aeb5"></path><path d="M297 600L407 600L392 484Z" fill="#a6b3bb" stroke="#a6b3bb"></path><path d="M522 518L572 600L626 479Z" fill="#aab9c1" stroke="#aab9c1"></path><path d="M825 391L789 303L706 386Z" fill="#969ea4" stroke="#969ea4"></path><path d="M706 386L789 303L681 275Z" fill="#9ea9af" stroke="#9ea9af"></path><path d="M726 111L782 0L691 0Z" fill="#b6c9d2" stroke="#b6c9d2"></path><path d="M407 600L498 600L522 518Z" fill="#9aa3a9" stroke="#9aa3a9"></path><path d="M102 478L111 413L0 392Z" fill="#b2c4cc" stroke="#b2c4cc"></path><path d="M110 308L111 413L176 381Z" fill="#b2c4cc" stroke="#b2c4cc"></path><path d="M176 381L179 506L287 488Z" fill="#a2aeb5" stroke="#a2aeb5"></path><path d="M287 488L297 600L392 484Z" fill="#a2aeb5" stroke="#a2aeb5"></path><path d="M572 600L697 502L626 479Z" fill="#969ea4" stroke="#969ea4"></path><path d="M626 479L697 502L706 386Z" fill="#b2c4cc" stroke="#b2c4cc"></path><path d="M111 413L179 506L176 381Z" fill="#aebec6" stroke="#aebec6"></path><path d="M789 303L814 214L706 226Z" fill="#8e9498" stroke="#8e9498"></path><path d="M498 600L572 600L522 518Z" fill="#a6b3bb" stroke="#a6b3bb"></path><path d="M179 506L297 600L287 488Z" fill="#b6c9d2" stroke="#b6c9d2"></path><path d="M95 0L86 88L187 93Z" fill="#92999e" stroke="#92999e"></path><path d="M0 392L111 413L110 308Z" fill="#aab9c1" stroke="#aab9c1"></path><path d="M814 214L809 104L726 111Z" fill="#92999e" stroke="#92999e"></path><path d="M0 279L110 308L103 226Z" fill="#9ea9af" stroke="#9ea9af"></path><path d="M111 413L102 478L179 506Z" fill="#8e9498" stroke="#8e9498"></path><path d="M179 506L181 600L297 600Z" fill="#8e9498" stroke="#8e9498"></path><path d="M801 513L825 391L706 386Z" fill="#aab9c1" stroke="#aab9c1"></path><path d="M900 318L900 174L814 214Z" fill="#9aa3a9" stroke="#9aa3a9"></path><path d="M814 214L900 174L809 104Z" fill="#8e9498" stroke="#8e9498"></path><path d="M208 0L95 0L187 93Z" fill="#a2aeb5" stroke="#a2aeb5"></path><path d="M809 104L782 0L726 111Z" fill="#aab9c1" stroke="#aab9c1"></path><path d="M0 107L0 215L86 88Z" fill="#b6c9d2" stroke="#b6c9d2"></path><path d="M86 88L0 215L103 226Z" fill="#92999e" stroke="#92999e"></path><path d="M0 215L0 279L103 226Z" fill="#b2c4cc" stroke="#b2c4cc"></path><path d="M121 600L181 600L179 506Z" fill="#a2aeb5" stroke="#a2aeb5"></path><path d="M721 600L801 513L697 502Z" fill="#b2c4cc" stroke="#b2c4cc"></path><path d="M697 502L801 513L706 386Z" fill="#a6b3bb" stroke="#a6b3bb"></path><path d="M572 600L721 600L697 502Z" fill="#9aa3a9" stroke="#9aa3a9"></path><path d="M0 0L0 107L86 88Z" fill="#9ea9af" stroke="#9ea9af"></path><path d="M0 279L0 392L110 308Z" fill="#b6c9d2" stroke="#b6c9d2"></path><path d="M102 478L121 600L179 506Z" fill="#9ea9af" stroke="#9ea9af"></path><path d="M900 318L789 303L825 391Z" fill="#8e9498" stroke="#8e9498"></path><path d="M900 318L814 214L789 303Z" fill="#9ea9af" stroke="#9ea9af"></path><path d="M809 104L900 0L782 0Z" fill="#b6c9d2" stroke="#b6c9d2"></path><path d="M900 373L900 318L825 391Z" fill="#aab9c1" stroke="#aab9c1"></path><path d="M0 505L121 600L102 478Z" fill="#b6c9d2" stroke="#b6c9d2"></path><path d="M900 174L900 122L809 104Z" fill="#9ea9af" stroke="#9ea9af"></path><path d="M900 516L900 373L825 391Z" fill="#8e9498" stroke="#8e9498"></path><path d="M95 0L0 0L86 88Z" fill="#9aa3a9" stroke="#9aa3a9"></path><path d="M0 392L0 505L102 478Z" fill="#9aa3a9" stroke="#9aa3a9"></path><path d="M721 600L817 600L801 513Z" fill="#aab9c1" stroke="#aab9c1"></path><path d="M801 513L900 516L825 391Z" fill="#969ea4" stroke="#969ea4"></path><path d="M900 122L900 0L809 104Z" fill="#8e9498" stroke="#8e9498"></path><path d="M817 600L900 516L801 513Z" fill="#b6c9d2" stroke="#b6c9d2"></path><path d="M0 505L0 600L121 600Z" fill="#8e9498" stroke="#8e9498"></path><path d="M817 600L900 600L900 516Z" fill="#aebec6" stroke="#aebec6"></path></g></svg>